<?xml version="1.0" standalone="no"?>
<!DOCTYPE svg PUBLIC "-//W3C//DTD SVG 20010904//EN"
 "http://www.w3.org/TR/2001/REC-SVG-20010904/DTD/svg10.dtd">
<svg version="1.0" xmlns="http://www.w3.org/2000/svg"
 width="700.000000pt" height="700.000000pt" viewBox="0 0 700.000000 700.000000"
 preserveAspectRatio="xMidYMid meet">
<metadata>
Created by potrace 1.11, written by Peter Selinger 2001-2013
</metadata>
<g transform="translate(0.000000,700.000000) scale(0.100000,-0.100000)"
fill="#000000" stroke="none">
<path d="M3278 6165 c-2 -1 -39 -6 -83 -9 -73 -6 -159 -18 -225 -31 -144 -28
-190 -40 -315 -78 -91 -29 -161 -53 -190 -66 -11 -5 -49 -22 -85 -38 -329
-141 -651 -374 -910 -659 -118 -130 -186 -223 -327 -449 -73 -116 -217 -450
-248 -575 -2 -8 -11 -41 -20 -74 -25 -94 -63 -295 -71 -371 -3 -38 -8 -83 -10
-100 -5 -39 -5 -401 0 -440 2 -16 7 -57 11 -90 48 -408 195 -811 420 -1150
294 -445 716 -796 1200 -998 68 -28 286 -105 319 -112 11 -2 30 -6 41 -9 279
-66 402 -81 670 -81 197 0 258 5 423 30 660 100 1302 485 1701 1020 29 39 58
77 64 85 38 47 130 203 192 325 81 159 169 383 200 515 23 94 54 245 60 285 3
28 8 64 10 80 24 173 23 541 -1 660 -3 11 -7 38 -10 60 -61 471 -296 982 -623
1355 -128 145 -267 275 -406 380 -33 25 -61 48 -63 53 -2 4 -8 7 -14 7 -6 0
-25 10 -42 23 -86 65 -300 182 -446 244 -77 33 -241 92 -273 98 -9 2 -21 6
-25 9 -9 5 -17 7 -147 36 -136 31 -179 39 -237 45 -29 3 -87 9 -128 14 -70 8
-404 13 -412 6z"/>
</g>
</svg>
